<svg xmlns="http://www.w3.org/2000/svg" width="65.856" height="65.305" viewBox="0 0 65.856 65.305">
  <g id="Group_266" data-name="Group 266" transform="translate(-68)">
    <g id="Group_58" data-name="Group 58" transform="translate(68 0)">
      <path id="Path_172" data-name="Path 172" d="M146.177,26.253c6.207-1.662,10.455-6.4,10.455-11.816a11.355,11.355,0,0,0-4.567-8.89,17.791,17.791,0,0,0-21.32,0,11.356,11.356,0,0,0-4.566,8.89,11.232,11.232,0,0,0,3.862,8.287,16.334,16.334,0,0,0,8.541,3.936,14.58,14.58,0,0,0,6.067,6.43,1.3,1.3,0,0,0,1.867-1.3C146.514,31.762,146.229,29.277,146.177,26.253Zm-1.559-2.285a1.291,1.291,0,0,0-1.032,1.263c0,1.5.057,2.917.129,4.068a15.156,15.156,0,0,1-3.136-4.4,1.29,1.29,0,0,0-1.01-.709c-6.161-.7-10.807-4.894-10.807-9.75,0-5.434,5.672-9.854,12.644-9.854S154.05,9,154.05,14.437C154.05,18.91,150.172,22.83,144.619,23.969Z" transform="translate(-109.95 -2)" fill="#0a86f4"/>
      <path id="Path_173" data-name="Path 173" d="M237.036,86.6a1.291,1.291,0,1,0-.5,1.584A1.3,1.3,0,0,0,237.036,86.6Z" transform="translate(-204.385 -75.025)" fill="#0a86f4"/>
      <path id="Path_174" data-name="Path 174" d="M210.643,86.043a1.291,1.291,0,1,0,.475,1.568A1.309,1.309,0,0,0,210.643,86.043Z" transform="translate(-181.801 -75.047)" fill="#0a86f4"/>
      <path id="Path_175" data-name="Path 175" d="M262.481,86.044a1.291,1.291,0,1,0,.476,1.568A1.31,1.31,0,0,0,262.481,86.044Z" transform="translate(-226.972 -75.049)" fill="#0a86f4"/>
      <path id="Path_176" data-name="Path 176" d="M27.169,224.691a9.825,9.825,0,0,0,.631-7.543L25.644,210.4A9.89,9.89,0,1,0,6.8,216.421l2.156,6.748a9.839,9.839,0,0,0,1.506,2.919l-.2.586C4.277,228.434,0,234.586,0,241.612A1.291,1.291,0,0,0,1.291,242.9H26.234a1.291,1.291,0,0,0,1.291-1.291,16.141,16.141,0,0,0-5.431-12.291A9.814,9.814,0,0,0,27.169,224.691ZM9.729,210.062a7.3,7.3,0,0,1,10.28-2.9,19.111,19.111,0,0,1-2.741,3.659,10.629,10.629,0,0,1-3.8,2.594,13.045,13.045,0,0,1-1.279.368,1.289,1.289,0,0,0-.846,1.77c.005.011.008.022.013.033.06.126.131.291.205.484.386,1.009.889,2.873.379,4.094a1.992,1.992,0,0,1-.915.986l-1.763-5.516A7.261,7.261,0,0,1,9.729,210.062Zm8.224,19.977-.42,1.26q-.046.137-.1.268a2.885,2.885,0,0,1-5.37-2.093l.453-1.359.023.017q.126.091.254.178l.033.023A9.937,9.937,0,0,0,17.953,230.039Zm6.934,10.282H2.639a12.888,12.888,0,0,1,6.72-10.531,5.469,5.469,0,0,0,10.624,2.326l.313-.937A13.331,13.331,0,0,1,24.887,240.321Zm-4.283-13.2a7.4,7.4,0,0,1-7.35-1.754,7.262,7.262,0,0,1-1.329-1.781,4.661,4.661,0,0,0,2.338-2.283,7.382,7.382,0,0,0,.14-4.834c-.044-.166-.108-.327-.15-.492a.155.155,0,0,1-.005-.046c-.028-.039-.017-.059.034-.06a.661.661,0,0,1,.143-.054q.132-.051.262-.105a12.093,12.093,0,0,0,1.1-.527,12.83,12.83,0,0,0,1.8-1.194,17.312,17.312,0,0,0,3.038-3.128,23.151,23.151,0,0,0,1.343-1.957,7.279,7.279,0,0,1,1.208,2.283l2.157,6.747A7.316,7.316,0,0,1,20.6,227.119Z" transform="translate(0 -177.598)" fill="#0a86f4"/>
      <path id="Path_177" data-name="Path 177" d="M316.291,230.292a7.354,7.354,0,0,0-3.715-10.518l1.075-3.365a9.89,9.89,0,0,0-18.841-6.021l-2.156,6.747a9.892,9.892,0,0,0,5.5,12.092,16.106,16.106,0,0,0-5.227,12.116,1.292,1.292,0,0,0,1.291,1.291h10.792a1.291,1.291,0,0,0,0-2.583h-9.446a13.489,13.489,0,0,1,3.642-8.265,6.256,6.256,0,0,0,4.138,3.813,6.185,6.185,0,0,0,7.853-5.958c0-.022,0-.045,0-.067a10.869,10.869,0,0,1,1.722,1.091q.418.325.807.686a13.537,13.537,0,0,1,4.089,8.7H315.34a1.291,1.291,0,0,0,0,2.583h3.823a1.292,1.292,0,0,0,1.291-1.291A16.434,16.434,0,0,0,316.291,230.292Zm-4.5-8.052a4.787,4.787,0,0,1,2.527,6.244,13.437,13.437,0,0,0-1.994-1.235,13.843,13.843,0,0,0-1.584-.668c-.128-.046-.258-.084-.387-.125-.08-.025-.169-.029-.21-.1a1.86,1.86,0,0,1-.113-.327,9.846,9.846,0,0,0,1.47-2.874ZM300.882,206.9a7.307,7.307,0,0,1,10.309,8.719,2.508,2.508,0,0,1-.144.451c-.007.014-.007.028-.017.037-.045.041-.221.042-.283.052q-.261.042-.524.065A5.45,5.45,0,0,1,308.08,216a5.272,5.272,0,0,1-1.083-.489c-3.115-1.85-4.2-6.565-4.207-6.61a1.3,1.3,0,0,0-1.885-.853,5.982,5.982,0,0,0-.778.651,7.171,7.171,0,0,1-.989.682,3.7,3.7,0,0,1-1.3.476A7.258,7.258,0,0,1,300.882,206.9Zm-5.767,11.018,1.758-5.5a5.9,5.9,0,0,0,3.99-1.043q.035.091.07.182a13.228,13.228,0,0,0,3.8,5.525,7.952,7.952,0,0,0,4.179,1.711,8.472,8.472,0,0,0,1.253.024l-.886,2.773a13.492,13.492,0,0,1-.641,1.754,7.162,7.162,0,0,1-1.039,1.576,7.307,7.307,0,0,1-12.489-7Zm9.9,15.325a3.64,3.64,0,0,1-3.282-2.117,3.588,3.588,0,0,1-.3-1.115,9.628,9.628,0,0,0,1.064.012A9.843,9.843,0,0,0,308,228.068l.614,1.775A3.61,3.61,0,0,1,305.013,233.247Z" transform="translate(-254.599 -177.585)" fill="#0a86f4"/>
      <path id="Path_178" data-name="Path 178" d="M424.06,487.885a1.292,1.292,0,1,0,.484,1.548A1.3,1.3,0,0,0,424.06,487.885Z" transform="translate(-367.768 -425.201)" fill="#0a86f4"/>
    </g>
  </g>
</svg>
