<svg xmlns="http://www.w3.org/2000/svg" width="64.683" height="58.188" viewBox="0 0 64.683 58.188">
  <g id="Group_243" data-name="Group 243" transform="translate(-569.317 -1090)">
    <ellipse id="Ellipse_32" data-name="Ellipse 32" cx="1.418" cy="1.182" rx="1.418" ry="1.182" transform="translate(617.457 1135.903)" fill="#0a86f4"/>
    <path id="Path_171" data-name="Path 171" d="M52.36,282.388l-7.231,4.8a5.078,5.078,0,0,0-4.395-2.577h-6.15a2.52,2.52,0,0,1-1.67-.615l-.89-.783a12.659,12.659,0,0,0-16.691,0l-1.913,1.683-3.314,2.343v-.732a1.263,1.263,0,0,0-1.263-1.263H1.263A1.263,1.263,0,0,0,0,286.506v18.95a1.263,1.263,0,0,0,1.263,1.263h7.58a1.263,1.263,0,0,0,1.263-1.263V302.3h3.972l21.8,4.4a1.264,1.264,0,0,0,1-.221l8.815-6.484a1.263,1.263,0,1,0-1.5-2.035l-8.365,6.153L14.454,299.8a1.265,1.265,0,0,0-.25-.025h-4.1v-9.438c5.4-3.818,4.47-3.039,6.9-5.223a10.127,10.127,0,0,1,13.353,0l.89.783a5.044,5.044,0,0,0,3.338,1.245h6.15a2.527,2.527,0,1,1,0,5.053H25.574a1.263,1.263,0,1,0,0,2.527h15.16a5.052,5.052,0,0,0,5.051-4.933l7.969-5.288a6.3,6.3,0,0,1,7.819.677l-8.22,6.046a1.263,1.263,0,0,0,1.5,2.035l9.318-6.854a1.263,1.263,0,0,0,.281-1.75,8.822,8.822,0,0,0-12.089-2.263Zm-44.78,21.8H2.527V287.769H7.58Z" transform="translate(569.317 841.469)" fill="#0a86f4"/>
    <g id="Ellipse_33" data-name="Ellipse 33" transform="translate(594 1090)" fill="none" stroke="#0a86f4" stroke-width="2">
      <circle cx="14.5" cy="14.5" r="14.5" stroke="none"/>
      <circle cx="14.5" cy="14.5" r="13.5" fill="none"/>
    </g>
    <path id="Icon_material-euro-symbol" data-name="Icon material-euro-symbol" d="M13.188,15.722a4.691,4.691,0,0,1-4.17-2.534h4.17V11.74H8.54a4.554,4.554,0,0,1,0-1.448h4.648V8.844H9.018a4.7,4.7,0,0,1,7.233-1.4l1.281-1.281A6.506,6.506,0,0,0,7.048,8.844H4.5v1.448H6.715a6.055,6.055,0,0,0,0,1.448H4.5v1.448H7.048a6.506,6.506,0,0,0,10.483,2.679l-1.289-1.281a4.638,4.638,0,0,1-3.055,1.137Z" transform="translate(595.594 1093.5)" fill="#0a86f4"/>
  </g>
</svg>
