<svg id="Group_240" data-name="Group 240" xmlns="http://www.w3.org/2000/svg" width="76.59" height="65.305" viewBox="0 0 76.59 65.305">
  <path id="Path_114" data-name="Path 114" d="M72.51,74.46a13.049,13.049,0,0,0-1.666.113V69.7a1.127,1.127,0,0,0-2.248,0V80.141h-.231a8.84,8.84,0,0,0-2.455.35V69.817a2.662,2.662,0,0,0-2.657-2.657H60.489a2.663,2.663,0,0,0-2.663,2.657V81.778h-3.44V69.817A2.663,2.663,0,0,0,51.73,67.16H39.781a2.662,2.662,0,0,0-2.657,2.657V81.778h-3.44V69.817a2.662,2.662,0,0,0-2.657-2.657H28.264a2.662,2.662,0,0,0-2.657,2.657V81.778H22.921v-23l22.838-20.5L68.6,58.78v6.037a1.127,1.127,0,0,0,2.248,0V60.8l.409.368a2.657,2.657,0,0,0,3.752-.2l0,0L77.574,58.1a2.663,2.663,0,0,0-.2-3.754L65.109,43.344a1.121,1.121,0,1,0-1.5,1.666L75.872,56.023a.415.415,0,0,1,.006.587l-.006.006-2.562,2.858a.421.421,0,0,1-.593.03L46.506,35.937a1.109,1.109,0,0,0-1.494,0L18.764,59.5a.426.426,0,0,1-.3.107.452.452,0,0,1-.291-.136L15.615,56.61a.415.415,0,0,1,.023-.587l.007-.007L44.2,30.386a2.325,2.325,0,0,1,3.119,0L59.973,41.742a1.121,1.121,0,0,0,1.5-1.666h0L48.818,28.714a4.572,4.572,0,0,0-6.12,0L14.144,54.35a2.663,2.663,0,0,0-.2,3.754l2.568,2.858a2.633,2.633,0,0,0,1.832.878h.148a2.62,2.62,0,0,0,1.779-.682l.415-.368V74.5a12.812,12.812,0,0,0-6.672,2.562,1.121,1.121,0,0,0,.676,2.016,1.143,1.143,0,0,0,.676-.225,10.571,10.571,0,0,1,5.337-2.1V90.614H11.6a10.729,10.729,0,0,1,.86-8.427,1.127,1.127,0,1,0-1.963-1.1,13,13,0,0,0-1.637,6.3,12.868,12.868,0,0,0,.907,4.744,1.115,1.115,0,0,0,1.044.712H83.5a1.115,1.115,0,0,0,1.044-.712,12.755,12.755,0,0,0,.907-4.744A12.952,12.952,0,0,0,72.51,74.46ZM60.056,69.817a.415.415,0,0,1,.415-.415h2.764a.415.415,0,0,1,.415.415V81.5l-.385.261H60.074ZM61.07,84a8.718,8.718,0,0,0-1.494,4.893,9.062,9.062,0,0,0,.166,1.7H54.4V84ZM39.781,69.4H51.73a.415.415,0,0,1,.415.415v20.8H39.371v-20.8A.415.415,0,0,1,39.781,69.4Zm-11.938.415a.421.421,0,0,1,.415-.415h2.764a.415.415,0,0,1,.415.415V81.778H27.849Zm-4.928,20.8V84H37.148V90.62Zm46.8,0H62.043a6.523,6.523,0,1,1,12.643,0Zm12.993,0H76.981a9.06,9.06,0,0,0,.16-1.726,8.8,8.8,0,0,0-6.31-8.427V76.808a11.12,11.12,0,0,1,1.666-.13A10.711,10.711,0,0,1,82.7,90.6Z" transform="translate(-8.86 -27.538)" fill="#0a86f4"/>
  <path id="Path_115" data-name="Path 115" d="M76.791,117.638a1.121,1.121,0,0,0,1.121-1.121V115.23a1.121,1.121,0,1,0-2.242,0v1.277a1.121,1.121,0,0,0,1.109,1.133Z" transform="translate(-36.05 -62.77)" fill="#0a86f4"/>
  <path id="Path_116" data-name="Path 116" d="M58.84,70.7a7.265,7.265,0,1,0,7.271-7.259H66.1A7.271,7.271,0,0,0,58.84,70.7Zm12.276,0A5.017,5.017,0,1,1,66.1,65.682h0A5.017,5.017,0,0,1,71.116,70.7Z" transform="translate(-29.2 -42.149)" fill="#0a86f4"/>
</svg>
