<svg xmlns="http://www.w3.org/2000/svg" width="65.84" height="65.84" viewBox="0 0 65.84 65.84">
  <g id="Group_242" data-name="Group 242" transform="translate(-613 -39.5)">
    <g id="Group_59" data-name="Group 59" transform="translate(613 39.5)">
      <path id="Path_101" data-name="Path 101" d="M108.589,116.89a3.376,3.376,0,1,0,3.382,3.376A3.376,3.376,0,0,0,108.589,116.89Zm0,4.753a1.377,1.377,0,1,1,1.377-1.377h0A1.377,1.377,0,0,1,108.589,121.643Z" transform="translate(-51.858 -63.839)" fill="#0a86f4"/>
      <path id="Path_102" data-name="Path 102" d="M85.826,87.654a8.92,8.92,0,0,0-2.989-6.459L62.39,62.877,80.485,44.9a1.537,1.537,0,0,0,.349-.136l3.918-2.052a1.9,1.9,0,0,0,.992-1.395,1.852,1.852,0,0,0-.537-1.618L80.8,35.316a1.923,1.923,0,0,0-1.635-.533,1.87,1.87,0,0,0-1.4.992l-2.065,3.887a1.45,1.45,0,0,0-.144.353l-8.554,8.524a1,1,0,0,0,.021,1.429,1.021,1.021,0,0,0,1.421,0l7.824-7.811L78.326,44.2,58.3,64.086,56.25,62.046l8.735-8.679a1.006,1.006,0,0,0,.02-1.429,1.022,1.022,0,0,0-1.438-.02l-.017.017-6.333,6.3-6.9-6.2a15.473,15.473,0,0,0-9.643-19.712,15.7,15.7,0,0,0-10.692.179,1.007,1.007,0,0,0-.356,1.655l7.987,7.922a1.234,1.234,0,0,1,0,1.753h0l-5.179,5.145a1.254,1.254,0,0,1-1.765,0h0l-7.974-7.922a1.027,1.027,0,0,0-.93-.273,1,1,0,0,0-.736.62,15.467,15.467,0,0,0,9,20.01A15.693,15.693,0,0,0,40.37,61.7l5.335,5.8a5.507,5.507,0,0,1-6.864,2.6,1.022,1.022,0,0,0-1.086.229L25.333,82.676a8.537,8.537,0,0,0,0,12.128,8.672,8.672,0,0,0,12.208,0L49.948,82.453a1,1,0,0,0,.25-1.06,5.444,5.444,0,0,1,3.125-7.062,5.525,5.525,0,0,1,3.988,0,1.023,1.023,0,0,0,1.086-.223l2.34-2.331a3.7,3.7,0,0,0,0-5.257l-1-.992,1.248-1.2L81.508,82.714a6.954,6.954,0,0,1,.235,9.877,7.065,7.065,0,0,1-9.942.234c-.066-.063-.132-.127-.2-.193L56.319,76.025a1.018,1.018,0,0,0-1.432-.065,1,1,0,0,0-.066,1.423L70.077,93.958a8.991,8.991,0,0,0,6.483,2.932h.218a9.042,9.042,0,0,0,9.056-9.029c0-.069,0-.138,0-.207Zm-8.3-47.112,1.947-3.657,4.174,4.141L79.954,42.96ZM41.437,59.852a1.021,1.021,0,0,0-1.1-.26A13.591,13.591,0,0,1,22.88,51.68a13.4,13.4,0,0,1-.442-8.02L29.233,50.4a3.291,3.291,0,0,0,4.633,0l0,0,5.179-5.145a3.239,3.239,0,0,0,0-4.6l0,0-6.795-6.738A13.565,13.565,0,0,1,48.731,43.65a13.388,13.388,0,0,1-.555,8.323,1.006,1.006,0,0,0,.268,1.122l7.332,6.6-.961.924-1-.992a3.761,3.761,0,0,0-5.285,0L46.2,61.959a1.006,1.006,0,0,0-.231,1.079,5.374,5.374,0,0,1,.368,2.126Zm17.87,10.482-1.872,1.86a7.564,7.564,0,0,0-7.406,1.9h0a7.455,7.455,0,0,0-1.953,7.377L36.1,93.382a6.649,6.649,0,0,1-9.359,0,6.545,6.545,0,0,1,0-9.3l12.011-11.89a7.5,7.5,0,0,0,9.319-5,7.392,7.392,0,0,0,0-4.254l1.872-1.86a1.724,1.724,0,0,1,2.415,0l1.716,1.7,3.488,3.465,1.741,1.674A1.7,1.7,0,0,1,59.307,70.334Z" transform="translate(-19.995 -31.478)" fill="#0a86f4"/>
      <path id="Path_103" data-name="Path 103" d="M46.312,103.126a1,1,0,0,0-1.409-.006l-.006.006L35.417,112.6a1,1,0,1,0,1.414,1.4l9.481-9.481A1,1,0,0,0,46.312,103.126Z" transform="translate(-25.822 -58.523)" fill="#0a86f4"/>
      <path id="Path_104" data-name="Path 104" d="M51.968,108.818a1.014,1.014,0,0,0-1.42,0L41.085,118.3a1,1,0,1,0,1.319,1.509.981.981,0,0,0,.095-.095l9.469-9.475A1.014,1.014,0,0,0,51.968,108.818Z" transform="translate(-27.756 -60.618)" fill="#0a86f4"/>
    </g>
  </g>
</svg>
