<svg id="Component_9_1" data-name="Component 9 – 1" xmlns="http://www.w3.org/2000/svg" width="246.221" height="39.573" viewBox="0 0 246.221 39.573">
  <path id="Path_203" data-name="Path 203" d="M6.784,4.213,2.564-10.19.539-10.508v-2.465h7.8v2.46L6.4-10.165,8.319-2.692l.41,1.619h.1L9.37-2.692l3.608-10.281h2.915L19.371-2.628,19.947-.8h.1L20.6-2.628l2.092-7.536-2.069-.35v-2.46h7.634v2.465l-1.963.338-4.4,14.383H18.378L15.092-5.063l-.673-2.259-.1.01-.657,2.254L10.3,4.213Zm30.84.334a7.865,7.865,0,0,1-4.259-1.114A7.32,7.32,0,0,1,30.628.34,10.3,10.3,0,0,1,29.671-4.2v-.338a10.257,10.257,0,0,1,.957-4.528,7.4,7.4,0,0,1,2.734-3.1,7.743,7.743,0,0,1,4.23-1.125,7.794,7.794,0,0,1,4.254,1.122,7.4,7.4,0,0,1,2.731,3.092,10.262,10.262,0,0,1,.957,4.538V-4.2A10.314,10.314,0,0,1,44.577.345a7.329,7.329,0,0,1-2.726,3.089A7.781,7.781,0,0,1,37.624,4.546Zm0-3.087a3.307,3.307,0,0,0,2.19-.722,4.326,4.326,0,0,0,1.3-2,9.184,9.184,0,0,0,.431-2.94v-.338a9.1,9.1,0,0,0-.431-2.92,4.334,4.334,0,0,0-1.306-2,3.346,3.346,0,0,0-2.214-.727,3.322,3.322,0,0,0-2.2.727,4.283,4.283,0,0,0-1.3,2,9.254,9.254,0,0,0-.423,2.92V-4.2A9.36,9.36,0,0,0,34.1-1.255a4.21,4.21,0,0,0,1.3,2A3.4,3.4,0,0,0,37.624,1.459ZM56.1,4.546a7.865,7.865,0,0,1-4.259-1.114A7.32,7.32,0,0,1,49.106.34,10.3,10.3,0,0,1,48.149-4.2v-.338a10.257,10.257,0,0,1,.957-4.528,7.4,7.4,0,0,1,2.734-3.1,7.743,7.743,0,0,1,4.23-1.125,7.794,7.794,0,0,1,4.254,1.122,7.4,7.4,0,0,1,2.731,3.092,10.262,10.262,0,0,1,.957,4.538V-4.2A10.314,10.314,0,0,1,63.055.345a7.329,7.329,0,0,1-2.726,3.089A7.781,7.781,0,0,1,56.1,4.546Zm0-3.087a3.307,3.307,0,0,0,2.19-.722,4.325,4.325,0,0,0,1.3-2,9.184,9.184,0,0,0,.431-2.94v-.338a9.1,9.1,0,0,0-.431-2.92,4.334,4.334,0,0,0-1.306-2,3.346,3.346,0,0,0-2.214-.727,3.322,3.322,0,0,0-2.2.727,4.283,4.283,0,0,0-1.3,2,9.254,9.254,0,0,0-.423,2.92V-4.2a9.361,9.361,0,0,0,.423,2.946,4.21,4.21,0,0,0,1.3,2A3.4,3.4,0,0,0,56.1,1.459ZM66.12,4.213V1.763L68.5,1.3V-10.041l-2.515-.467v-2.465h6.2l.211,2.5a6.246,6.246,0,0,1,2.135-2.078,5.691,5.691,0,0,1,2.907-.74,5.291,5.291,0,0,1,4.129,1.631q1.479,1.631,1.479,5.087V1.3l2.379.467v2.45H76.79V1.763L79.033,1.3V-6.539a3.986,3.986,0,0,0-.775-2.774,3.06,3.06,0,0,0-2.329-.82,3.851,3.851,0,0,0-2.013.518A4.03,4.03,0,0,0,72.5-8.172V1.3l2.175.467v2.45ZM86.959,10.82V8.355l2.323-.467V-10.041l-2.527-.467v-2.465h6.119l.252,2.04a5.547,5.547,0,0,1,1.944-1.749,5.659,5.659,0,0,1,2.7-.608,5.733,5.733,0,0,1,3.586,1.14,7.125,7.125,0,0,1,2.283,3.193,13.288,13.288,0,0,1,.791,4.793v.334a11.222,11.222,0,0,1-.8,4.4A6.655,6.655,0,0,1,101.345,3.5a6.049,6.049,0,0,1-3.578,1.049,6.142,6.142,0,0,1-2.589-.512,5.133,5.133,0,0,1-1.9-1.515V7.888l2.448.467V10.82Zm9.6-9.361A3.236,3.236,0,0,0,99.468.012a6.936,6.936,0,0,0,.945-3.843v-.334a10.343,10.343,0,0,0-.423-3.111,4.542,4.542,0,0,0-1.284-2.1,3.181,3.181,0,0,0-2.183-.758,3.631,3.631,0,0,0-1.933.5,3.7,3.7,0,0,0-1.317,1.4V-.345A3.493,3.493,0,0,0,94.587.993,3.909,3.909,0,0,0,96.554,1.459Zm9.617,2.754V1.763l2.391-.467V-17.634l-2.527-.467v-2.466h6.529V1.3l2.385.467v2.45Zm18.334.334a8.056,8.056,0,0,1-4.239-1.088A7.384,7.384,0,0,1,117.47.449a9.486,9.486,0,0,1-.989-4.405v-.659a9.888,9.888,0,0,1,.977-4.47,7.733,7.733,0,0,1,2.69-3.087,6.931,6.931,0,0,1,3.914-1.12,7.572,7.572,0,0,1,3.906.933A5.935,5.935,0,0,1,130.361-9.7a9.673,9.673,0,0,1,.811,4.138v2.283H120.628l-.036.091a6.178,6.178,0,0,0,.568,2.4A3.947,3.947,0,0,0,122.594.859a4.064,4.064,0,0,0,2.251.6,8.07,8.07,0,0,0,2.55-.379A7.794,7.794,0,0,0,129.512,0l1.24,2.51a8.418,8.418,0,0,1-2.577,1.453A10.485,10.485,0,0,1,124.5,4.546ZM120.69-6.079h6.656v-.413A5.207,5.207,0,0,0,127-8.467a2.828,2.828,0,0,0-1.061-1.325,3.242,3.242,0,0,0-1.831-.476,2.8,2.8,0,0,0-1.7.538,3.794,3.794,0,0,0-1.17,1.464,6.851,6.851,0,0,0-.586,2.108ZM133.762,4.213v-2.5l9.117-11.792H137.5l-.471,2.919h-2.958v-5.81h13.66v2.616L138.864,1.286h5.9l.572-3.054H148.2V4.213Zm16.64,0V1.767l2.383-.477V-10.035l-2.526-.477v-2.462h6.528V1.29l2.367.477V4.213Zm2.224-21.078v-3.7h4.162v3.7Zm16.4,21.412a8.056,8.056,0,0,1-4.239-1.088A7.384,7.384,0,0,1,161.993.449,9.486,9.486,0,0,1,161-3.956v-.659a9.888,9.888,0,0,1,.977-4.47,7.733,7.733,0,0,1,2.69-3.087,6.931,6.931,0,0,1,3.914-1.12,7.572,7.572,0,0,1,3.906.933A5.935,5.935,0,0,1,174.884-9.7a9.673,9.673,0,0,1,.811,4.138v2.283H165.151l-.036.091a6.178,6.178,0,0,0,.568,2.4A3.947,3.947,0,0,0,167.117.859a4.064,4.064,0,0,0,2.251.6,8.07,8.07,0,0,0,2.55-.379A7.794,7.794,0,0,0,174.035,0l1.24,2.51A8.418,8.418,0,0,1,172.7,3.96,10.485,10.485,0,0,1,169.027,4.546ZM165.213-6.079h6.656v-.413a5.207,5.207,0,0,0-.346-1.975,2.828,2.828,0,0,0-1.062-1.325,3.242,3.242,0,0,0-1.831-.476,2.8,2.8,0,0,0-1.7.538,3.794,3.794,0,0,0-1.17,1.464,6.852,6.852,0,0,0-.586,2.108ZM178.15,4.213V1.763l2.379-.467V-10.041l-2.515-.467v-2.465h6.19l.219,2.158.032.347a5.585,5.585,0,0,1,1.667-2.1,3.846,3.846,0,0,1,2.335-.727,6.314,6.314,0,0,1,.943.076,5.44,5.44,0,0,1,.821.178l-.464,3.7-2.25-.121a2.8,2.8,0,0,0-1.8.428,3.791,3.791,0,0,0-1.175,1.36V1.3l2.379.467v2.45Z" transform="translate(56 27)" fill="#444"/>
  <g id="Group_268" data-name="Group 268" transform="translate(0 -0.669)">
    <path id="Path_206" data-name="Path 206" d="M37.388,16.979l1.437-1.628Zm-34.236,0L1.715,15.35ZM36.2,19.15V35.175h4.344V19.15ZM35.472,35.9H5.067v4.344h30.4ZM4.344,35.175V19.15H0V35.175Zm.245-16.568,15.2-13.414L16.917,1.937,1.715,15.35ZM20.749,5.194l15.2,13.414,2.874-3.257L23.622,1.937Zm-.958,0a.724.724,0,0,1,.958,0l2.874-3.257a5.067,5.067,0,0,0-6.705,0ZM5.067,35.9a.724.724,0,0,1-.724-.724H0a5.067,5.067,0,0,0,5.067,5.067ZM36.2,35.175a.724.724,0,0,1-.724.724v4.344a5.067,5.067,0,0,0,5.067-5.067ZM40.539,19.15a5.067,5.067,0,0,0-1.715-3.8l-2.874,3.257a.724.724,0,0,1,.245.543Zm-36.2,0a.724.724,0,0,1,.245-.543L1.715,15.35A5.067,5.067,0,0,0,0,19.15Z" transform="translate(0)" fill="#0a86f4"/>
    <path id="Path_207" data-name="Path 207" d="M45.969,70.72a2.133,2.133,0,0,0,.1-3.04,2.193,2.193,0,0,0-3.075-.1ZM25.663,67.581a2.193,2.193,0,0,0-3.075.1,2.133,2.133,0,0,0,.1,3.04Zm17.331,0a12.707,12.707,0,0,1-8.665,3.362v4.3A17.086,17.086,0,0,0,45.969,70.72Zm-8.665,3.362a12.707,12.707,0,0,1-8.665-3.362L22.688,70.72a17.086,17.086,0,0,0,11.641,4.524Z" transform="translate(-14.059 -43.223)" fill="#0a86f4"/>
  </g>
</svg>
